<?xml version="1.0" encoding="UTF-8"?>
<!-- Generated by Pixelmator Pro 3.2.3 -->
<svg width="128" height="42" viewBox="0 0 128 42" xmlns="http://www.w3.org/2000/svg" xmlns:xlink="http://www.w3.org/1999/xlink">
    <path id="Path" fill="#ffffff" stroke="none" d="M 10.4736 20.2103 L 0 20.2103 L 0 4.34119 L 2.44838 4.34119 L 2.44838 17.966 L 10.4736 17.966 L 10.4736 20.2103 Z"/>
    <path id="path1" fill="#ffffff" stroke="none" d="M 16.8897 20.5277 C 15.8317 20.5277 14.8418 20.301001 13.9199 19.847601 C 12.998 19.379101 12.2574 18.698999 11.6982 17.807301 C 11.139 16.900499 10.8594 15.8274 10.8594 14.5881 C 10.8594 13.348801 11.139 12.2833 11.6982 11.3916 C 12.2574 10.4848 12.998 9.80471 13.9199 9.351311 C 14.8418 8.88279 15.8317 8.648529 16.8897 8.648529 C 17.932501 8.648529 18.9149 8.88279 19.8368 9.351311 C 20.758699 9.80471 21.4993 10.4848 22.0585 11.3916 C 22.617701 12.2833 22.897301 13.348801 22.897301 14.5881 C 22.897301 15.8274 22.617701 16.900499 22.0585 17.807301 C 21.4993 18.698999 20.758699 19.379101 19.8368 19.847601 C 18.9149 20.301001 17.932501 20.5277 16.8897 20.5277 Z M 16.8897 18.3741 C 17.5396 18.3741 18.1441 18.2229 18.7033 17.9207 C 19.262501 17.6033 19.7008 17.1574 20.0182 16.583099 C 20.3507 16.008801 20.516899 15.3438 20.516899 14.5881 C 20.516899 13.8325 20.3507 13.1675 20.0182 12.5931 C 19.7008 12.018801 19.262501 11.5805 18.7033 11.278301 C 18.1441 10.960901 17.5396 10.8022 16.8897 10.8022 C 16.224701 10.8022 15.6126 10.960901 15.0534 11.278301 C 14.5093 11.5805 14.071 12.018801 13.7385 12.5931 C 13.406 13.1675 13.2398 13.8325 13.2398 14.5881 C 13.2398 15.3438 13.406 16.008801 13.7385 16.583099 C 14.071 17.1574 14.5093 17.6033 15.0534 17.9207 C 15.6126 18.2229 16.224701 18.3741 16.8897 18.3741 Z"/>
    <path id="path2" fill="#ffffff" stroke="none" d="M 30.162399 20.5277 C 29.104401 20.5277 28.1145 20.301001 27.1926 19.847601 C 26.2707 19.379101 25.5301 18.698999 24.9709 17.807301 C 24.411699 16.900499 24.132099 15.8274 24.132099 14.5881 C 24.132099 13.348801 24.411699 12.2833 24.9709 11.3916 C 25.5301 10.4848 26.2707 9.80471 27.1926 9.351311 C 28.1145 8.88279 29.104401 8.648529 30.162399 8.648529 C 31.2052 8.648529 32.187599 8.88279 33.109501 9.351311 C 34.031399 9.80471 34.771999 10.4848 35.3312 11.3916 C 35.8904 12.2833 36.169998 13.348801 36.169998 14.5881 C 36.169998 15.8274 35.8904 16.900499 35.3312 17.807301 C 34.771999 18.698999 34.031399 19.379101 33.109501 19.847601 C 32.187599 20.301001 31.2052 20.5277 30.162399 20.5277 Z M 30.162399 18.3741 C 30.8123 18.3741 31.4168 18.2229 31.976 17.9207 C 32.535198 17.6033 32.973499 17.1574 33.290901 16.583099 C 33.623402 16.008801 33.7896 15.3438 33.7896 14.5881 C 33.7896 13.8325 33.623402 13.1675 33.290901 12.5931 C 32.973499 12.018801 32.535198 11.5805 31.976 11.278301 C 31.4168 10.960901 30.8123 10.8022 30.162399 10.8022 C 29.4974 10.8022 28.8853 10.960901 28.326099 11.278301 C 27.782 11.5805 27.3437 12.018801 27.0112 12.5931 C 26.678699 13.1675 26.512501 13.8325 26.512501 14.5881 C 26.512501 15.3438 26.678699 16.008801 27.0112 16.583099 C 27.3437 17.1574 27.782 17.6033 28.326099 17.9207 C 28.8853 18.2229 29.4974 18.3741 30.162399 18.3741 Z"/>
    <path id="path3" fill="#ffffff" stroke="none" d="M 40.4426 20.2103 L 38.0849 20.2103 L 38.0849 4.34119 L 40.4426 4.34119 L 40.4426 12.797199 L 44.3419 8.965908 L 47.266399 8.965908 L 43.208401 12.933199 L 47.878502 20.2103 L 45.2034 20.2103 L 41.553501 14.542799 L 40.4426 15.630999 L 40.4426 20.2103 Z"/>
    <path id="path4" fill="#ffffff" stroke="none" d="M 53.0774 20.5277 C 51.823002 20.5277 50.780102 20.217899 49.948898 19.598301 C 49.132801 18.9786 48.520699 18.177601 48.112598 17.1952 L 50.016899 16.016399 C 50.2738 16.802299 50.666801 17.4219 51.195702 17.875299 C 51.724701 18.328699 52.367001 18.555401 53.1227 18.555401 C 53.727299 18.555401 54.226002 18.4118 54.6189 18.124701 C 55.027 17.822399 55.231098 17.429501 55.231098 16.945801 C 55.231098 16.492399 55.019501 16.1373 54.596298 15.880301 C 54.188202 15.608301 53.523201 15.389101 52.601299 15.2229 C 51.437599 14.996201 50.5005 14.603201 49.790199 14.044001 C 49.095001 13.4848 48.747398 12.7292 48.747398 11.777 C 48.747398 10.809801 49.132801 10.046501 49.9035 9.487331 C 50.6894 8.928131 51.6492 8.648529 52.7827 8.648529 C 53.9464 8.648529 54.8834 8.88279 55.5938 9.351311 C 56.3041 9.80471 56.870899 10.499901 57.293999 11.437 L 55.571098 12.4571 C 55.314201 11.807201 54.943901 11.3085 54.4603 10.960901 C 53.991699 10.5982 53.447701 10.4168 52.827999 10.4168 C 52.2537 10.4168 51.777599 10.530201 51.399799 10.756901 C 51.0219 10.9685 50.833 11.278301 50.833 11.6863 C 50.833 12.124601 51.067299 12.4874 51.535801 12.7745 C 52.019402 13.061701 52.729801 13.2959 53.666801 13.477301 C 54.936298 13.7342 55.873402 14.134701 56.477901 14.678801 C 57.097599 15.2078 57.407398 15.9408 57.407398 16.8778 C 57.407398 17.542801 57.233601 18.1549 56.886002 18.7141 C 56.553501 19.2733 56.054699 19.7192 55.389702 20.051701 C 54.739899 20.368999 53.969101 20.5277 53.0774 20.5277 Z"/>
    <path id="path5" fill="#ffffff" stroke="none" d="M 59.478298 20.2103 L 59.478298 4.34119 L 66.007401 4.34119 C 67.110703 4.34119 68.062798 4.530109 68.8638 4.90794 C 69.679901 5.270668 70.299599 5.79208 70.722801 6.472191 C 71.161102 7.15229 71.380203 7.930641 71.380203 8.80722 C 71.380203 9.970959 71.055298 10.9382 70.405403 11.709 C 69.755501 12.464699 68.841103 13.008799 67.6623 13.341299 L 71.5616 20.2103 L 68.795799 20.2103 L 65.009903 13.567999 L 61.926701 13.567999 L 61.926701 20.2103 L 59.478298 20.2103 Z M 65.893997 11.414299 C 66.891502 11.414299 67.647202 11.2103 68.161003 10.8022 C 68.674896 10.379 68.931801 9.759369 68.931801 8.943241 C 68.931801 8.142231 68.674896 7.537689 68.161003 7.129631 C 67.647202 6.706448 66.891502 6.494858 65.893997 6.494858 L 61.926701 6.494858 L 61.926701 11.414299 L 65.893997 11.414299 Z"/>
    <path id="path6" fill="#ffffff" stroke="none" d="M 76.319702 20.5277 C 75.201302 20.5277 74.294502 20.2103 73.599197 19.5756 C 72.903999 18.925699 72.556396 18.0793 72.556396 17.036501 C 72.556396 15.9786 72.919098 15.147301 73.6446 14.542801 C 74.385201 13.9382 75.329697 13.5453 76.478401 13.363901 L 80.060204 12.797201 L 80.060204 12.3438 C 80.060204 11.693901 79.856201 11.2027 79.448196 10.870201 C 79.055199 10.537701 78.480904 10.3715 77.725197 10.3715 C 76.984703 10.3715 76.402802 10.5226 75.979599 10.8249 C 75.571602 11.112001 75.3675 11.4748 75.3675 11.913 C 75.3675 12.018801 75.382599 12.1171 75.412903 12.2078 L 73.349899 12.9105 C 73.228996 12.6234 73.168503 12.313501 73.168503 11.9811 C 73.168503 11.3916 73.349899 10.8475 73.712601 10.348801 C 74.090401 9.834942 74.626999 9.426872 75.322197 9.124611 C 76.017403 8.80722 76.818398 8.648529 77.725197 8.648529 C 79.236603 8.648529 80.392799 8.98103 81.193802 9.646019 C 82.009903 10.311001 82.417999 11.278301 82.417999 12.5478 L 82.417999 17.4219 C 82.417999 18.0567 82.470901 18.5781 82.576698 18.9862 C 82.682404 19.379101 82.871399 19.787201 83.143402 20.2103 L 80.763 20.2103 C 80.355003 19.6814 80.150902 19.016399 80.150902 18.215401 C 79.803299 18.9408 79.281898 19.507601 78.5867 19.9156 C 77.906601 20.3237 77.150902 20.5277 76.319702 20.5277 Z M 76.818398 18.5781 C 77.785698 18.5781 78.564003 18.230499 79.153503 17.535299 C 79.758003 16.8249 80.060204 15.9181 80.060204 14.8148 L 80.060204 14.4974 L 76.999802 15.0189 C 76.304604 15.139801 75.767998 15.3589 75.390198 15.6763 C 75.027496 15.9937 74.8461 16.4093 74.8461 16.923201 C 74.8461 17.437 75.019897 17.8451 75.3675 18.1474 C 75.730202 18.4345 76.213898 18.5781 76.818398 18.5781 Z"/>
    <path id="path7" fill="#ffffff" stroke="none" d="M 84.888298 20.2103 L 84.888298 8.965912 L 87.246002 8.965912 L 87.246002 10.870201 C 87.548302 10.1901 87.971497 9.65358 88.515503 9.260632 C 89.074699 8.852562 89.702003 8.648529 90.397202 8.648529 C 90.729698 8.648529 91.054604 8.693871 91.372002 8.78455 L 90.986603 10.960901 C 90.699402 10.855101 90.397202 10.8022 90.079803 10.8022 C 89.248596 10.8022 88.568398 11.1574 88.039497 11.867701 C 87.510498 12.562901 87.246002 13.4244 87.246002 14.452101 L 87.246002 20.2103 L 84.888298 20.2103 Z"/>
    <path id="path8" fill="#ffffff" stroke="none" d="M 97.2379 20.5277 C 96.210197 20.5277 95.258102 20.2784 94.3815 19.7796 C 93.519997 19.280899 92.832298 18.5781 92.318497 17.671301 C 91.804604 16.7645 91.547699 15.736801 91.547699 14.5881 C 91.547699 13.439501 91.804604 12.4193 92.318497 11.527601 C 92.832298 10.6208 93.527603 9.91806 94.404099 9.419319 C 95.295799 8.90546 96.278198 8.648529 97.351303 8.648529 C 98.424301 8.648529 99.368896 8.89035 100.184998 9.373981 C 101.015999 9.842491 101.658997 10.5075 102.112 11.369001 C 102.565002 12.2153 102.792 13.1826 102.792 14.2707 L 102.792 15.086901 L 93.814697 15.086901 C 93.890297 16.099501 94.245399 16.923201 94.880203 17.557899 C 95.514999 18.192699 96.316002 18.510099 97.283302 18.510099 C 98.114502 18.510099 98.8022 18.321199 99.346199 17.9433 C 99.890297 17.5504 100.350998 16.983601 100.728996 16.243099 L 102.452003 17.240499 C 101.907997 18.3438 101.212997 19.1675 100.365997 19.711599 C 99.520103 20.255699 98.477203 20.5277 97.2379 20.5277 Z M 100.547997 13.250601 C 100.457001 12.389101 100.109001 11.7166 99.504898 11.232901 C 98.900398 10.7342 98.159798 10.4848 97.283302 10.4848 C 96.436897 10.4848 95.703903 10.7493 95.084198 11.278301 C 94.4646 11.792101 94.056503 12.4496 93.8601 13.250601 L 100.547997 13.250601 Z"/>
    <path id="path9" fill="#000000" stroke="none" d="M 111.947998 7.804749 C 115.089996 4.680729 120.183998 4.680717 123.324997 7.804749 L 126.039001 10.5033 L 123.324997 13.201899 C 120.183998 16.325899 115.089996 16.325899 111.947998 13.201899 L 109.234001 10.5033 L 111.947998 7.804749 Z"/>
    <path id="path10" fill="#0ce466" fill-rule="evenodd" stroke="none" d="M 107.273003 10.507599 L 113.434998 4.34137 L 121.837997 4.34137 L 128 10.507599 L 117.637001 20.866501 L 107.273003 10.507599 Z M 122.398003 8.262569 C 119.779999 5.632908 115.492996 5.632931 112.875 8.262581 L 110.634003 10.5033 L 112.875 12.743999 C 115.492996 15.373699 119.779999 15.373699 122.398003 12.743999 L 124.639 10.5033 L 122.398003 8.262569 Z"/>
    <path id="path11" fill="#000000" stroke="none" d="M 117.637001 12.4639 C 116.554001 12.4639 115.676003 11.5865 115.676003 10.5033 C 115.676003 9.420021 116.554001 8.54266 117.637001 8.54266 C 118.719002 8.54266 119.597 9.420021 119.597 10.5033 C 119.597 11.5865 118.719002 12.4639 117.637001 12.4639 Z"/>
    <path id="path12" fill="#ffffff" fill-rule="evenodd" stroke="none" d="M 114.416 10.5033 C 114.416 12.2829 115.859001 13.7243 117.637001 13.7243 C 119.415001 13.7243 120.858002 12.2829 120.858002 10.5033 C 120.858002 8.72366 119.415001 7.282288 117.637001 7.282288 C 115.859001 7.282288 114.416 8.723648 114.416 10.5033 Z M 116.236 10.5033 C 116.236 11.277 116.863998 11.9037 117.637001 11.9037 C 118.410004 11.9037 119.037003 11.2771 119.037003 10.5033 C 119.037003 9.729538 118.410004 9.102859 117.637001 9.102859 C 116.863998 9.102859 116.236 9.729538 116.236 10.5033 Z"/>
    <path id="NFT-viewer" fill="#ffffff" fill-rule="evenodd" stroke="none" d="M 68.160004 39 L 68.160004 32 L 70.274002 32 L 70.274002 32.784 C 70.386002 32.531998 70.586662 32.324333 70.875999 32.160999 C 71.165337 31.997665 71.482666 31.916 71.828003 31.916 C 72.145332 31.916 72.43 31.962666 72.681999 32.056 L 72.360001 34.029999 C 72.285332 33.973999 72.089333 33.945999 71.772003 33.945999 C 71.071999 33.945999 70.57267 34.155998 70.274002 34.576 L 70.274002 39 Z M 63.386002 39.153999 C 62.331329 39.153999 61.447006 38.820335 60.733002 38.153 C 60.018997 37.485664 59.662003 36.601337 59.662003 35.5 C 59.662003 34.454662 60.011993 33.584335 60.711998 32.889 C 61.412003 32.193665 62.28933 31.846001 63.344002 31.846001 C 64.324005 31.846001 65.149994 32.144665 65.821999 32.742001 C 66.494003 33.339336 66.830002 34.179329 66.830002 35.262001 C 66.830002 35.532669 66.816002 35.779999 66.788002 36.004002 L 61.706001 36.004002 C 61.762001 36.405334 61.953331 36.710999 62.279999 36.921001 C 62.606667 37.131001 62.984665 37.236 63.414001 37.236 C 63.796669 37.236 64.137329 37.159 64.435997 37.005001 C 64.734665 36.850998 64.958664 36.662003 65.108002 36.438 L 66.676003 37.613998 C 66.339996 38.090004 65.887337 38.465664 65.318001 38.741001 C 64.748665 39.016335 64.104668 39.153999 63.386002 39.153999 Z M 61.762001 34.618 L 64.730003 34.618 C 64.645996 34.272667 64.468666 34.011333 64.197998 33.834 C 63.92733 33.656666 63.624001 33.568001 63.288002 33.568001 C 62.933334 33.568001 62.611336 33.654331 62.321999 33.827 C 62.032661 33.999668 61.846001 34.263332 61.762001 34.618 Z M 54.874001 39 L 53.669998 35.304001 L 52.48 39 L 50.352001 39 L 48.042 32 L 50.310001 32 L 51.528 36.298 L 52.858002 32 L 54.481998 32 L 55.812 36.298 L 57.029999 32 L 59.297997 32 L 57.001999 39 Z M 44.192001 39.153999 C 43.137329 39.153999 42.253002 38.820335 41.539001 38.153 C 40.824997 37.485664 40.467999 36.601337 40.467999 35.5 C 40.467999 34.454662 40.817997 33.584335 41.518002 32.889 C 42.218002 32.193665 43.095329 31.846001 44.150002 31.846001 C 45.130005 31.846001 45.955997 32.144665 46.627998 32.742001 C 47.300003 33.339336 47.636002 34.179329 47.636002 35.262001 C 47.636002 35.532669 47.622002 35.779999 47.594002 36.004002 L 42.512001 36.004002 C 42.568001 36.405334 42.759331 36.710999 43.085999 36.921001 C 43.41267 37.131001 43.790665 37.236 44.220001 37.236 C 44.602669 37.236 44.943333 37.159 45.242001 37.005001 C 45.540668 36.850998 45.764668 36.662003 45.914001 36.438 L 47.481998 37.613998 C 47.146 38.090004 46.693336 38.465664 46.124001 38.741001 C 45.554665 39.016335 44.910671 39.153999 44.192001 39.153999 Z M 42.568001 34.618 L 45.535999 34.618 C 45.452 34.272667 45.27467 34.011333 45.004002 33.834 C 44.733334 33.656666 44.43 33.568001 44.094002 33.568001 C 43.73933 33.568001 43.417336 33.654331 43.127998 33.827 C 42.838665 33.999668 42.652 34.263332 42.568001 34.618 Z M 38.088001 31.327999 C 37.73333 31.327999 37.425335 31.199669 37.164001 30.943001 C 36.902664 30.686333 36.771999 30.376001 36.771999 30.012001 C 36.771999 29.647999 36.902664 29.337669 37.164001 29.081001 C 37.425335 28.824333 37.73333 28.695999 38.088001 28.695999 C 38.461334 28.695999 38.776333 28.824333 39.033001 29.081001 C 39.289669 29.337669 39.417999 29.647999 39.417999 30.012001 C 39.417999 30.376001 39.289669 30.686333 39.033001 30.943001 C 38.776333 31.199669 38.461334 31.327999 38.088001 31.327999 Z M 37.037998 39 L 37.037998 32 L 39.152 32 L 39.152 39 Z M 31.158001 39 L 28.091999 32 L 30.43 32 L 32.124001 36.256001 L 33.832001 32 L 36.183998 32 L 33.118 39 Z M 20.559999 39 L 20.559999 31.188 L 18.025999 31.188 L 18.025999 29.060001 L 25.362 29.060001 L 25.362 31.188 L 22.799999 31.188 L 22.799999 39 Z M 11.138 39 L 11.138 29.060001 L 17.256001 29.060001 L 17.256001 31.188 L 13.364 31.188 L 13.364 32.98 L 16.402 32.98 L 16.402 35.108002 L 13.364 35.108002 L 13.364 39 Z M 9.038 39 L 7.12 39 L 2.276 32.854 L 2.276 39 L 0.05 39 L 0.05 29.060001 L 1.968 29.060001 L 6.798 35.206001 L 6.798 29.060001 L 9.038 29.060001 Z"/>
</svg>
